<?xml version="1.0" encoding="UTF-8" standalone="no"?>
<!DOCTYPE svg PUBLIC "-//W3C//DTD SVG 1.1//EN"
 "http://www.w3.org/Graphics/SVG/1.1/DTD/svg11.dtd">
<!-- Generated by graphviz version 2.47.1 (20210417.1919)
 -->
<!-- Title: FSM Pages: 1 -->
<svg width="648pt" height="120pt"
 viewBox="0.00 0.00 648.00 120.30" xmlns="http://www.w3.org/2000/svg" xmlns:xlink="http://www.w3.org/1999/xlink">
<g id="graph0" class="graph" transform="scale(2.06 2.06) rotate(0) translate(4 54.43)">
<title>FSM</title>
<!-- 1 -->
<g id="node1" class="node">
<title>1</title>
<ellipse fill="none" stroke="black" cx="281.49" cy="-25.21" rx="21.39" ry="21.39"/>
<ellipse fill="none" stroke="black" cx="281.49" cy="-25.21" rx="25.43" ry="25.43"/>
<text text-anchor="middle" x="281.49" y="-20.21" font-family="Times New Roman,serif" font-size="20.00">1</text>
</g>
<!-- 0 -->
<g id="node2" class="node">
<title>0</title>
<ellipse fill="none" stroke="black" cx="21.21" cy="-25.21" rx="21.43" ry="21.43"/>
<text text-anchor="middle" x="21.21" y="-20.21" font-family="Times New Roman,serif" font-size="20.00">0</text>
</g>
<!-- 2 -->
<g id="node3" class="node">
<title>2</title>
<ellipse fill="none" stroke="black" cx="106.64" cy="-25.21" rx="21.43" ry="21.43"/>
<text text-anchor="middle" x="106.64" y="-20.21" font-family="Times New Roman,serif" font-size="20.00">2</text>
</g>
<!-- 0&#45;&gt;2 -->
<g id="edge1" class="edge">
<title>0&#45;&gt;2</title>
<path fill="none" stroke="blue" d="M42.84,-25.21C52.53,-25.21 64.3,-25.21 75.01,-25.21"/>
<polygon fill="blue" stroke="blue" points="75.25,-28.71 85.25,-25.21 75.25,-21.71 75.25,-28.71"/>
<text text-anchor="middle" x="63.93" y="-29.01" font-family="Times New Roman,serif" font-size="14.00" fill="blue">1</text>
</g>
<!-- 3 -->
<g id="node4" class="node">
<title>3</title>
<ellipse fill="none" stroke="black" cx="192.07" cy="-25.21" rx="21.43" ry="21.43"/>
<text text-anchor="middle" x="192.07" y="-20.21" font-family="Times New Roman,serif" font-size="20.00">3</text>
</g>
<!-- 2&#45;&gt;3 -->
<g id="edge2" class="edge">
<title>2&#45;&gt;3</title>
<path fill="none" stroke="red" d="M128.26,-25.21C137.96,-25.21 149.72,-25.21 160.44,-25.21"/>
<polygon fill="red" stroke="red" points="160.68,-28.71 170.68,-25.21 160.68,-21.71 160.68,-28.71"/>
<text text-anchor="middle" x="149.35" y="-29.01" font-family="Times New Roman,serif" font-size="14.00" fill="red">0</text>
</g>
<!-- 3&#45;&gt;1 -->
<g id="edge3" class="edge">
<title>3&#45;&gt;1</title>
<path fill="none" stroke="blue" d="M213.34,-25.21C222.98,-25.21 234.76,-25.21 245.76,-25.21"/>
<polygon fill="blue" stroke="blue" points="245.96,-28.71 255.96,-25.21 245.96,-21.71 245.96,-28.71"/>
<text text-anchor="middle" x="234.78" y="-29.01" font-family="Times New Roman,serif" font-size="14.00" fill="blue">1</text>
</g>
</g>
</svg>
